# Blender v2.79 (sub 0) OBJ File: ''
# www.blender.org
mtllib battle_scythe.mtl
o syc_柱体.001
v 0.515177 1.558883 0.463316
v 0.536671 1.748683 0.484793
v 0.536671 1.558883 0.484793
v 0.536684 1.748683 0.515178
v 0.515207 1.748683 0.536672
v 0.463329 1.748683 0.515208
v 0.463316 1.748683 0.484823
v 0.463316 1.558883 0.484823
v 0.484793 1.748683 0.463329
v 0.484793 1.558883 0.463329
v 0.519271 -0.947038 0.492009
v 0.519277 -0.947038 0.507976
v 0.507991 -0.947038 0.519270
v 0.480723 -0.947038 0.492024
v 0.492009 -0.947038 0.480729
v 0.489307 -0.921432 0.474215
v 0.474214 -0.921432 0.510694
v 0.489328 -0.847001 0.525795
v 0.510672 -0.847001 0.474206
v 0.489307 -0.838836 0.474215
v 0.477609 -0.839789 0.490736
v 0.474206 -0.838836 0.489328
v 0.477616 -0.839789 0.509283
v 0.474214 -0.838836 0.510694
v 0.490736 -0.839789 0.522391
v 0.489328 -0.838836 0.525795
v 0.509282 -0.839789 0.522383
v 0.510694 -0.838836 0.525786
v 0.522384 -0.839789 0.490717
v 0.525786 -0.838836 0.489306
v 0.510672 -0.838836 0.474206
v 0.474206 -0.815589 0.489328
v 0.477609 -0.814379 0.490736
v 0.474214 -0.815589 0.510694
v 0.477616 -0.814379 0.509283
v 0.489328 -0.815589 0.525795
v 0.509282 -0.814379 0.522383
v 0.525794 -0.815589 0.510672
v 0.509264 -0.814379 0.477609
v 0.509264 -0.846169 0.477609
v 0.522384 -0.846169 0.490717
v 0.477616 -0.846169 0.509283
v 0.490717 -0.846169 0.477616
v 0.509264 1.542157 0.477609
v 0.477504 1.592359 0.709826
v 0.473064 1.622417 0.740102
v 0.473064 1.687502 0.739521
v 0.526936 1.622417 0.740102
v 0.500000 1.236868 -0.692805
v 0.500000 1.124121 -0.738230
v 0.522496 1.592359 0.709826
v 0.529630 1.811873 0.719910
v 0.468506 1.826987 0.709826
v 0.534284 1.709672 0.709826
v 0.477504 1.631711 0.397833
v 0.477504 1.787234 0.397833
v 0.522496 1.709221 0.397833
v 0.522496 1.787234 0.397833
v 0.477698 1.711625 0.362067
v 0.522496 1.631711 0.397833
v 0.478855 1.709685 0.181221
v 0.498207 1.838311 0.152107
v 0.498208 1.611801 -0.539329
v 0.485594 1.532412 -0.462309
v 0.501793 1.774040 -0.236014
v 0.517332 1.659019 -0.182931
v 0.515767 1.601656 -0.332353
v 0.498207 1.774040 -0.236014
v 0.521145 1.709685 0.181221
v 0.500000 1.610418 0.180430
v 0.501793 1.838311 0.152107
v 0.500000 1.603282 0.015730
v 0.482668 1.659019 -0.182931
v 0.490000 1.366354 -0.658509
v 0.514407 1.532412 -0.462309
v 0.501793 1.507471 -0.646798
v 0.500000 1.484653 -0.422083
v 0.501793 1.386581 -0.717111
v 0.500000 1.332197 -0.630864
v 0.542691 1.705612 0.395132
v 0.542691 1.820033 0.424239
v 0.457310 1.820033 0.590418
v 0.457310 1.705612 0.590418
v 0.457310 1.820033 0.424239
v 0.542690 1.591192 0.424238
v 0.515177 1.748683 0.463316
v 0.536684 1.558883 0.515178
v 0.515207 1.558883 0.536672
v 0.484823 1.748683 0.536684
v 0.484823 1.558883 0.536684
v 0.463329 1.558883 0.515208
v 0.507976 -0.947038 0.480723
v 0.492024 -0.947038 0.519277
v 0.480729 -0.947038 0.507991
v 0.474206 -0.921432 0.489328
v 0.489328 -0.921432 0.525795
v 0.510694 -0.921432 0.525786
v 0.525794 -0.921432 0.510672
v 0.525786 -0.921432 0.489306
v 0.510672 -0.921432 0.474206
v 0.489307 -0.847001 0.474215
v 0.474206 -0.847001 0.489328
v 0.474214 -0.847001 0.510694
v 0.510694 -0.847001 0.525786
v 0.525794 -0.847001 0.510672
v 0.525786 -0.847001 0.489306
v 0.490717 -0.839789 0.477616
v 0.522391 -0.839789 0.509263
v 0.525794 -0.838836 0.510672
v 0.509264 -0.839789 0.477609
v 0.489307 -0.815589 0.474215
v 0.490717 -0.814379 0.477616
v 0.490736 -0.814379 0.522391
v 0.510694 -0.815589 0.525786
v 0.522391 -0.814379 0.509263
v 0.525786 -0.815589 0.489306
v 0.522384 -0.814379 0.490717
v 0.510672 -0.815589 0.474206
v 0.522391 -0.846169 0.509263
v 0.509282 -0.846169 0.522383
v 0.490736 -0.846169 0.522391
v 0.477609 -0.846169 0.490736
v 0.490718 1.542157 0.477617
v 0.477609 1.542157 0.490737
v 0.477616 1.542157 0.509283
v 0.490736 1.542157 0.522391
v 0.509283 1.542157 0.522384
v 0.522391 1.542157 0.509264
v 0.522384 1.542157 0.490717
v 0.465716 1.709672 0.709826
v 0.526936 1.687502 0.739521
v 0.505388 1.265062 -0.720393
v 0.499093 1.277614 -0.742521
v 0.500907 1.277614 -0.742521
v 0.470370 1.811873 0.719910
v 0.531494 1.826987 0.709826
v 0.477504 1.709221 0.397833
v 0.498292 1.848114 0.362154
v 0.522302 1.711625 0.362067
v 0.500000 1.605137 0.362154
v 0.501708 1.848114 0.362154
v 0.484233 1.601656 -0.332353
v 0.498208 1.702099 -0.409800
v 0.500000 1.542318 -0.292853
v 0.501793 1.702099 -0.409800
v 0.500000 1.575653 -0.157039
v 0.519212 1.694684 -0.003410
v 0.501793 1.825531 -0.034246
v 0.498207 1.825531 -0.034246
v 0.480788 1.694684 -0.003410
v 0.500000 1.433959 -0.508777
v 0.486632 1.463550 -0.561416
v 0.498207 1.386581 -0.717111
v 0.498208 1.507471 -0.646798
v 0.501793 1.611801 -0.539329
v 0.513369 1.463550 -0.561416
v 0.494612 1.265062 -0.720393
v 0.510000 1.366354 -0.658509
v 0.542690 1.820033 0.590418
v 0.542690 1.705612 0.590418
v 0.457310 1.705612 0.395132
v 0.542690 1.591192 0.590418
v 0.457310 1.591192 0.590418
v 0.457310 1.591192 0.424238
v 0.528570 1.617538 0.591269
v 0.471430 1.617538 0.591269
v 0.471925 1.801649 0.591269
v 0.528570 1.709507 0.591269
v 0.471430 1.709507 0.591269
v 0.528075 1.801649 0.591269
vt 0.979356 0.996982
vt 0.979356 0.890427
vt 0.935301 0.890427
vt 0.935301 0.996982
vt 0.935301 0.014696
vt 0.935301 0.071686
vt 0.979356 0.071686
vt 0.979356 0.014696
vt 0.979356 0.132776
vt 0.935301 0.132776
vt 0.935301 0.845129
vt 0.979356 0.845129
vt 0.979356 0.890427
vt 0.935301 0.890427
vt 0.935301 0.845120
vt 0.979356 0.845129
vt 0.979356 0.078441
vt 0.979356 0.071651
vt 0.935301 0.071669
vt 0.935301 0.078527
vt 0.146935 0.524695
vt 0.146857 0.523903
vt 0.157532 0.518197
vt 0.158147 0.518701
vt 0.935301 0.996982
vt 0.979356 0.996982
vt 0.979356 0.890427
vt 0.935301 0.890427
vt 0.935301 0.078544
vt 0.979356 0.078475
vt 0.979356 0.071686
vt 0.935301 0.071686
vt 0.935301 0.071616
vt 0.935301 0.078544
vt 0.979356 0.078475
vt 0.979356 0.071598
vt 0.161046 0.506613
vt 0.161838 0.506535
vt 0.979356 0.132776
vt 0.935301 0.132776
vt 0.935301 0.845129
vt 0.979356 0.845129
vt 0.935301 0.890427
vt 0.935301 0.996982
vt 0.979356 0.996982
vt 0.979356 0.890427
vt 0.935301 0.132776
vt 0.935301 0.845129
vt 0.134769 0.521004
vt 0.135274 0.520389
vt 0.155844 0.495323
vt 0.155340 0.495938
vt 0.143756 0.492424
vt 0.143678 0.491633
vt 0.117075 0.149134
vt 0.123149 0.129107
vt 0.130668 0.119242
vt 0.150694 0.125317
vt 0.160559 0.143774
vt 0.154484 0.163800
vt 0.136028 0.173665
vt 0.126939 0.167590
vt 0.862722 0.086026
vt 0.853532 0.081113
vt 0.850507 0.071141
vt 0.855419 0.061951
vt 0.865391 0.058926
vt 0.874582 0.063838
vt 0.877607 0.073810
vt 0.872694 0.083001
vt 0.143756 0.459363
vt 0.133081 0.465069
vt 0.132466 0.464564
vt 0.143678 0.458571
vt 0.935301 0.890427
vt 0.935301 0.845120
vt 0.979356 0.845129
vt 0.979356 0.890427
vt 0.128776 0.509792
vt 0.129567 0.509714
vt 0.149897 0.589422
vt 0.150129 0.590183
vt 0.137476 0.588937
vt 0.137851 0.588235
vt 0.979356 0.996982
vt 0.979356 0.890427
vt 0.935301 0.890427
vt 0.935301 0.996982
vt 0.131359 0.566832
vt 0.130172 0.578879
vt 0.129411 0.579110
vt 0.130657 0.566457
vt 0.979356 0.078475
vt 0.979357 0.132776
vt 0.935301 0.132776
vt 0.935300 0.078475
vt 0.161838 0.473473
vt 0.161046 0.473551
vt 0.155340 0.462876
vt 0.155844 0.462261
vt 0.935301 0.078508
vt 0.979356 0.078441
vt 0.979356 0.071652
vt 0.935301 0.071651
vt 0.979356 0.078441
vt 0.979356 0.071651
vt 0.935301 0.071652
vt 0.935301 0.071616
vt 0.935301 0.078474
vt 0.979356 0.078387
vt 0.979356 0.071598
vt 0.140716 0.559153
vt 0.140485 0.558392
vt 0.153137 0.559638
vt 0.152762 0.560340
vt 0.979356 0.014669
vt 0.935301 0.014669
vt 0.935301 0.071654
vt 0.979356 0.071654
vt 0.979356 0.071686
vt 0.935301 0.071616
vt 0.935301 0.078544
vt 0.979356 0.078475
vt 0.853519 0.059635
vt 0.865685 0.055945
vt 0.133081 0.498130
vt 0.132466 0.497626
vt 0.935301 0.890427
vt 0.935301 0.845120
vt 0.979356 0.845129
vt 0.979356 0.890427
vt 0.880588 0.074104
vt 0.874595 0.085316
vt 0.876897 0.061938
vt 0.979356 0.014671
vt 0.935301 0.014671
vt 0.935301 0.071656
vt 0.979356 0.071656
vt 0.160441 0.569697
vt 0.161202 0.569466
vt 0.159956 0.582118
vt 0.159254 0.581743
vt 0.862428 0.089007
vt 0.851216 0.083013
vt 0.979356 0.014671
vt 0.935301 0.014671
vt 0.935301 0.071656
vt 0.979356 0.071656
vt 0.158147 0.485639
vt 0.157532 0.485135
vt 0.129567 0.476652
vt 0.128776 0.476730
vt 0.146935 0.491633
vt 0.146857 0.490841
vt 0.979356 0.132776
vt 0.935301 0.132776
vt 0.935301 0.845129
vt 0.979356 0.845129
vt 0.979356 0.132776
vt 0.979356 0.845129
vt 0.935301 0.071656
vt 0.935301 0.014667
vt 0.979356 0.078475
vt 0.935301 0.078475
vt 0.935301 0.132776
vt 0.979357 0.132776
vt 0.935301 0.014698
vt 0.935301 0.071683
vt 0.979356 0.071683
vt 0.979356 0.014698
vt 0.134769 0.487942
vt 0.135274 0.487327
vt 0.979356 0.890427
vt 0.935301 0.890427
vt 0.935301 0.996982
vt 0.979356 0.996982
vt 0.979356 0.890427
vt 0.935301 0.890427
vt 0.935300 0.996982
vt 0.979356 0.996982
vt 0.935301 0.890427
vt 0.935301 0.996982
vt 0.979356 0.996982
vt 0.979356 0.890427
vt 0.847526 0.070847
vt 0.935301 0.132776
vt 0.935300 0.078475
vt 0.979356 0.078475
vt 0.979357 0.132776
vt 0.979356 0.845129
vt 0.979356 0.890427
vt 0.935301 0.890427
vt 0.935301 0.845121
vt 0.935301 0.078475
vt 0.935301 0.132776
vt 0.979356 0.132776
vt 0.979356 0.078475
vt 0.935301 0.890427
vt 0.935301 0.845120
vt 0.979356 0.845129
vt 0.979356 0.890427
vt 0.979356 0.078475
vt 0.979357 0.132776
vt 0.935301 0.845129
vt 0.935301 0.132776
vt 0.979356 0.132776
vt 0.979356 0.845129
vt 0.979356 0.132776
vt 0.979356 0.845129
vt 0.979356 0.078475
vt 0.979356 0.132776
vt 0.935301 0.132776
vt 0.935300 0.078475
vt 0.979356 0.890427
vt 0.979356 0.845129
vt 0.979356 0.890427
vt 0.935301 0.890427
vt 0.935301 0.996982
vt 0.979356 0.996982
vt 0.935301 0.845129
vt 0.935301 0.132776
vt 0.935300 0.078475
vt 0.935301 0.132776
vt 0.979356 0.071654
vt 0.979356 0.014665
vt 0.935301 0.890427
vt 0.935301 0.845121
vt 0.935301 0.845121
vt 0.935301 0.890427
vt 0.935301 0.014667
vt 0.935301 0.071656
vt 0.979356 0.071656
vt 0.979356 0.014667
vt 0.979356 0.071598
vt 0.935301 0.078474
vt 0.979356 0.078388
vt 0.935300 0.078475
vt 0.935301 0.132776
vt 0.979356 0.132776
vt 0.979356 0.078475
vt 0.367070 0.850104
vt 0.423416 0.850104
vt 0.423416 0.889018
vt 0.367070 0.889018
vt 0.240865 0.999580
vt 0.240865 0.999981
vt 0.188001 0.999981
vt 0.188001 0.999580
vt 0.000579 0.959628
vt 0.026534 0.941532
vt 0.026534 0.997767
vt 0.000579 0.000000
vt 0.052600 0.000000
vt 0.052600 0.020854
vt 0.000579 0.020854
vt 0.240865 0.986073
vt 0.188001 0.986073
vt 0.188001 0.979126
vt 0.240865 0.979126
vt 0.367070 0.889018
vt 0.423416 0.889018
vt 0.423416 0.850104
vt 0.367070 0.850104
vt 0.367070 0.689532
vt 0.423416 0.689532
vt 0.312167 0.689532
vt 0.312167 0.850104
vt 0.312167 0.889018
vt 0.312167 0.850104
vt 0.312167 0.889018
vt 0.312167 0.689532
vt 0.367070 0.689532
vt 0.367070 0.528960
vt 0.312167 0.528960
vt 0.367070 0.488227
vt 0.367070 0.528960
vt 0.312167 0.528960
vt 0.052600 0.227048
vt 0.026534 0.227048
vt 0.052600 0.194410
vt 0.000579 0.107632
vt 0.052600 0.107632
vt 0.000579 0.194410
vt 0.240865 0.892347
vt 0.188001 0.892347
vt 0.188001 0.805569
vt 0.240865 0.805569
vt 0.423416 0.689532
vt 0.423416 0.528960
vt 0.052600 0.361271
vt 0.026534 0.361834
vt 0.218726 0.619568
vt 0.240865 0.638706
vt 0.240865 0.780994
vt 0.218726 0.759491
vt 0.367070 0.488227
vt 0.211102 0.759491
vt 0.000579 0.227048
vt 0.188001 0.780994
vt 0.423416 0.528960
vt 0.218726 0.166023
vt 0.240865 0.216518
vt 0.240865 0.301773
vt 0.218726 0.250988
vt 0.052600 0.783463
vt 0.026534 0.757054
vt 0.026534 0.672284
vt 0.052600 0.698204
vt 0.211102 0.364983
vt 0.188001 0.399803
vt 0.188001 0.301773
vt 0.211102 0.250988
vt 0.218726 0.364983
vt 0.000579 0.600173
vt 0.026534 0.583196
vt 0.000579 0.698204
vt 0.000579 0.361271
vt 0.026534 0.469867
vt 0.000579 0.482399
vt 0.211102 0.619568
vt 0.211102 0.497330
vt 0.218726 0.497330
vt 0.188001 0.638702
vt 0.188001 0.517578
vt 0.240865 0.399803
vt 0.240865 0.517578
vt 0.052600 0.600173
vt 0.052600 0.482399
vt 0.052600 0.912188
vt 0.026534 0.880236
vt 0.026534 0.813924
vt 0.052600 0.848486
vt 0.218726 0.049408
vt 0.240865 0.087799
vt 0.240865 0.151497
vt 0.218726 0.095528
vt 0.211102 0.166023
vt 0.188001 0.216518
vt 0.188001 0.151497
vt 0.211102 0.095528
vt 0.000579 0.783463
vt 0.000579 0.848486
vt 0.218726 0.018963
vt 0.240865 0.040367
vt 0.052600 0.959628
vt 0.188001 0.087799
vt 0.211102 0.049408
vt 0.000579 0.912188
vt 0.026534 0.998884
vt 0.188001 0.040367
vt 0.211102 0.018963
vt 0.679847 0.836756
vt 0.649968 0.943654
vt 0.479847 0.943654
vt 0.479847 0.836756
vt 0.619931 0.635984
vt 0.630224 0.635984
vt 0.630224 0.656570
vt 0.619931 0.656570
vt 0.479847 0.836756
vt 0.479847 0.943654
vt 0.649968 0.943654
vt 0.679765 0.836756
vt 0.619931 0.677156
vt 0.630224 0.677156
vt 0.630224 0.697742
vt 0.619931 0.697742
vt 0.589052 0.656570
vt 0.609638 0.656570
vt 0.609638 0.677156
vt 0.589052 0.677156
vt 0.650810 0.656570
vt 0.650810 0.677156
vt 0.609638 0.697742
vt 0.479847 0.729859
vt 0.649968 0.729859
vt 0.609638 0.635984
vt 0.649968 0.729859
vt 0.479847 0.729859
vt 0.211102 0.000000
vt 0.218726 0.001118
vn -0.7074 0.0000 -0.7068
vn -1.0000 0.0000 0.0004
vn -0.0004 0.0000 -1.0000
vn 0.5374 -0.6496 -0.5378
vn -0.2368 0.9422 0.2370
vn -0.2367 0.9422 0.2371
vn 0.0004 0.0000 1.0000
vn -0.3350 0.9422 0.0001
vn 1.0000 0.0000 -0.0004
vn 0.7068 0.0000 -0.7074
vn 0.0001 0.9422 0.3350
vn -0.0001 0.9422 -0.3350
vn -0.0001 0.9422 -0.3351
vn 0.0000 1.0000 0.0000
vn 0.0000 -1.0000 0.0000
vn -0.1679 0.9714 0.1680
vn -0.5378 -0.6496 -0.5374
vn 0.2370 0.9422 0.2368
vn -0.0001 -0.9629 -0.2697
vn -0.7068 -0.0000 0.7074
vn 0.2697 -0.9630 -0.0002
vn 0.2697 -0.9630 -0.0001
vn -0.7068 -0.0001 0.7074
vn 0.1680 0.9714 0.1679
vn 0.7074 0.0000 0.7068
vn 0.0001 -0.9630 0.2697
vn 0.0004 -0.2466 0.9691
vn 0.2368 0.9422 -0.2370
vn 0.5378 -0.6496 0.5374
vn -0.6855 -0.2466 -0.6850
vn -0.9691 -0.2466 0.0004
vn -0.2697 -0.9630 0.0001
vn 0.6850 -0.2466 -0.6856
vn 0.7603 -0.6496 -0.0003
vn -0.1906 -0.9630 0.1908
vn 0.2375 0.9714 -0.0001
vn -0.2375 0.9714 0.0001
vn 0.1679 0.9714 -0.1680
vn -0.1908 -0.9629 -0.1906
vn 0.0001 0.9714 0.2375
vn -0.0001 0.9714 -0.2375
vn 0.6856 -0.2466 0.6850
vn 0.0003 -0.6496 0.7603
vn -0.0003 -0.6496 -0.7603
vn 0.1906 -0.9630 -0.1908
vn 0.1908 -0.9630 0.1906
vn 0.1907 -0.9630 0.1906
vn -1.0000 -0.0000 0.0003
vn -0.2370 0.9422 -0.2368
vn -0.2370 0.9422 -0.2369
vn -0.2371 0.9422 -0.2368
vn -0.7603 -0.6496 0.0003
vn -0.5374 -0.6496 0.5378
vn 0.3350 0.9422 -0.0001
vn 0.9691 -0.2466 -0.0004
vn -0.1680 0.9714 -0.1679
vn -0.0004 -0.2466 -0.9691
vn -0.9963 -0.0642 0.0568
vn 0.0000 0.0089 1.0000
vn 0.9891 -0.0551 0.1368
vn 0.0000 -0.7097 0.7045
vn 0.0000 0.5550 0.8319
vn 0.9963 -0.0642 0.0568
vn -0.9984 -0.0562 -0.0044
vn -0.9991 0.0157 -0.0402
vn 0.9697 0.0201 0.2435
vn 0.0000 0.1558 0.9878
vn -0.9697 0.0201 0.2435
vn 0.9995 0.0029 -0.0302
vn -1.0000 -0.0000 -0.0054
vn -0.8877 -0.1863 -0.4210
vn 0.0000 -0.9973 -0.0731
vn 0.0000 0.9972 -0.0743
vn 0.9995 0.0000 -0.0314
vn -0.9784 -0.2066 -0.0050
vn -0.9889 0.1482 -0.0072
vn 1.0000 0.0000 -0.0054
vn 0.0000 -0.8020 0.5973
vn 0.0000 0.5056 0.8628
vn 0.8877 -0.1863 -0.4210
vn 0.9414 0.1422 -0.3058
vn -0.9414 0.1422 -0.3058
vn -0.9937 0.0932 -0.0625
vn -0.9744 -0.2040 0.0948
vn 0.9931 0.1071 -0.0477
vn 0.0000 0.9240 -0.3825
vn 0.9780 -0.2001 0.0583
vn 0.9784 -0.2064 0.0077
vn 0.0000 0.9977 -0.0684
vn 0.9905 0.1368 -0.0154
vn -0.9920 0.1218 -0.0327
vn -0.9799 -0.1971 0.0302
vn -0.9739 -0.1754 0.1442
vn -0.9732 -0.1768 0.1471
vn -0.9921 0.0666 -0.1067
vn 0.9928 0.0894 -0.0800
vn 0.0000 0.7175 -0.6966
vn 0.9719 -0.2006 0.1236
vn 0.9889 0.1482 -0.0072
vn 0.0000 0.9989 -0.0466
vn 0.9784 -0.2066 -0.0050
vn -0.9905 0.1368 -0.0154
vn -0.9784 -0.2064 0.0077
vn -0.9780 -0.2001 0.0583
vn -0.9931 0.1071 -0.0477
vn 0.9799 -0.1971 0.0302
vn 0.0000 0.9689 -0.2473
vn 0.9920 0.1218 -0.0327
vn 0.9744 -0.2040 0.0948
vn 0.0000 0.8203 -0.5719
vn 0.9937 0.0932 -0.0625
vn -0.9719 -0.2005 0.1236
vn -0.9928 0.0894 -0.0800
vn -0.9893 0.0331 -0.1420
vn -0.9828 -0.1143 0.1448
vn -0.9830 -0.1113 0.1461
vn 0.9921 0.0665 -0.1067
vn 0.0000 0.5028 -0.8644
vn 0.9739 -0.1754 0.1442
vn 0.9742 -0.1763 0.1411
vn -0.9891 -0.0551 0.1368
vn 0.9893 0.0331 -0.1420
vn 0.0000 0.2271 -0.9739
vn 0.9828 -0.1143 0.1448
vn 0.9823 -0.1170 0.1464
vn 1.0000 -0.0000 0.0000
vn 0.0000 0.0000 1.0000
vn -1.0000 -0.0000 0.0000
vn 0.0000 0.2465 -0.9691
vn 0.0000 -0.2465 -0.9691
vn 0.0000 -0.0279 -0.9996
vn 0.9787 -0.0115 -0.2047
vn -0.9787 -0.0115 -0.2047
vn -0.6850 -0.2466 0.6856
vn 0.9984 -0.0562 -0.0044
vn 0.0000 0.9779 -0.2090
vn 0.0000 -0.9782 -0.2077
vn 0.9991 0.0157 -0.0402
vn -0.9995 0.0029 -0.0302
vn -0.9995 0.0000 -0.0314
usemtl Material.001
s off
f 9/1/1 10/2/1 8/3/1 7/4/1
f 17/5/2 103/6/2 102/7/2 95/8/2
f 39/9/3 112/10/3 123/11/3 44/12/3
f 129/13/4 44/14/4 1/15/4 3/16/4
f 110/17/3 40/18/3 43/19/3 107/20/3
f 36/21/5 113/22/5 35/23/5 34/24/6
f 9/25/3 86/26/3 1/27/3 10/28/3
f 121/29/7 120/30/7 27/31/7 25/32/7
f 122/33/2 42/34/2 23/35/2 21/36/2
f 34/24/8 35/23/8 33/37/8 32/38/8
f 33/39/2 35/40/2 125/41/2 124/42/2
f 3/43/9 2/44/9 4/45/9 87/46/9
f 117/47/10 39/9/10 44/12/10 129/48/10
f 36/21/11 114/49/11 37/50/11 113/22/11
f 111/51/12 112/52/12 39/53/13 118/54/13
f 86/55/14 9/56/14 7/57/14 6/58/14 89/59/14 5/60/14 4/61/14 2/62/14
f 92/63/15 11/64/15 12/65/15 13/66/15 93/67/15 94/68/15 14/69/15 15/70/15
f 121/71/16 42/72/16 103/73/16 18/74/16
f 124/75/17 8/76/17 10/77/17 123/78/17
f 38/79/18 115/80/18 37/50/18 114/49/18
f 107/81/19 20/82/19 31/83/19 110/84/19
f 6/85/20 91/86/20 90/87/20 89/88/20
f 108/89/21 29/90/22 30/91/22 109/92/22
f 26/93/20 36/94/20 34/95/23 24/96/20
f 105/97/24 119/98/24 120/99/24 104/100/24
f 120/101/25 119/102/25 108/103/25 27/104/25
f 121/105/20 25/106/20 23/107/20 42/34/20
f 40/108/10 110/109/10 29/110/10 41/111/10
f 27/112/26 28/113/26 26/114/26 25/115/26
f 97/116/25 98/117/25 105/118/25 104/119/25
f 41/120/9 29/121/9 108/122/9 119/123/9
f 93/67/27 13/66/27 97/124/27 96/125/27
f 118/54/28 39/53/28 117/126/28 116/127/28
f 128/128/29 87/129/29 88/130/29 127/131/29
f 14/69/30 95/132/30 16/133/30 15/70/30
f 94/68/31 17/134/31 95/132/31 14/69/31
f 99/135/10 100/136/10 19/137/10 106/138/10
f 23/139/32 24/140/32 22/141/32 21/142/32
f 11/64/33 92/63/33 100/143/33 99/144/33
f 129/13/34 3/16/34 87/129/34 128/128/34
f 100/145/3 16/146/3 101/147/3 19/148/3
f 23/139/35 25/115/35 26/114/35 24/140/35
f 106/149/36 41/150/36 119/98/36 105/97/36
f 103/73/37 42/72/37 122/151/37 102/152/37
f 19/153/38 40/154/38 41/150/38 106/149/38
f 112/155/1 33/156/1 124/157/1 123/158/1
f 107/81/39 21/142/39 22/141/39 20/82/39
f 125/41/20 35/40/20 113/159/20 126/160/20
f 97/116/7 104/119/7 18/161/7 96/162/7
f 109/163/9 30/164/9 116/165/9 38/166/9
f 99/167/9 106/168/9 105/169/9 98/170/9
f 104/100/40 120/99/40 121/71/40 18/74/40
f 101/171/41 43/172/41 40/154/41 19/153/41
f 90/173/7 88/174/7 5/175/7 89/176/7
f 8/177/2 91/178/2 6/179/2 7/180/2
f 87/181/25 4/182/25 5/183/25 88/184/25
f 12/65/42 98/185/42 97/124/42 13/66/42
f 36/186/7 26/187/7 28/188/7 114/189/7
f 90/190/43 126/191/43 127/192/43 88/193/43
f 20/194/3 111/195/3 118/196/3 31/197/3
f 123/198/44 10/199/44 1/200/44 44/201/44
f 20/194/1 22/202/1 32/203/1 111/195/1
f 110/84/45 31/83/45 30/91/45 29/90/45
f 108/89/46 109/92/47 28/113/47 27/112/47
f 126/204/7 113/205/7 37/206/7 127/207/7
f 115/208/9 117/47/9 129/48/9 128/209/9
f 24/210/2 34/211/48 32/212/2 22/213/2
f 32/38/49 33/37/49 112/52/50 111/51/51
f 125/214/52 91/215/52 8/76/52 124/75/52
f 3/216/10 1/217/10 86/218/10 2/219/10
f 115/208/25 128/209/25 127/220/25 37/221/25
f 109/222/25 38/223/25 114/189/25 28/188/25
f 96/162/20 18/161/20 103/224/20 17/225/20
f 126/226/53 90/227/53 91/228/53 125/229/53
f 38/79/54 116/127/54 117/126/54 115/80/54
f 95/230/1 102/231/1 101/232/1 16/233/1
f 99/144/55 98/185/55 12/65/55 11/64/55
f 102/152/56 122/151/56 43/172/56 101/171/56
f 43/234/1 122/33/1 21/235/1 107/236/1
f 31/237/10 118/238/10 116/239/10 30/240/10
f 15/70/57 16/133/57 100/143/57 92/63/57
f 130/241/58 45/242/58 46/243/58 47/244/58
f 47/245/59 46/246/59 48/247/59 131/248/59
f 132/249/60 49/250/60 50/251/60
f 48/252/61 46/253/61 45/254/61 51/255/61
f 135/256/62 52/257/62 136/258/62 53/259/62
f 131/260/63 48/261/63 51/262/63 54/263/63
f 169/264/64 166/265/64 45/242/64 130/241/64
f 167/266/65 169/264/65 130/241/65 53/267/65
f 52/268/66 131/260/66 54/263/66 136/269/66
f 135/256/67 47/245/67 131/248/67 52/257/67
f 53/267/68 130/241/68 47/244/68 135/270/68
f 170/271/69 168/272/69 57/273/69 58/274/69
f 59/275/70 137/276/70 56/277/70
f 59/278/71 140/279/71 55/280/71
f 165/281/72 166/282/72 55/280/72 60/283/72
f 167/284/73 170/285/73 58/286/73 56/287/73
f 168/272/74 165/288/74 60/289/74 57/273/74
f 61/290/75 70/291/75 140/279/75 59/278/75
f 62/292/76 61/293/76 59/294/76 138/295/76
f 58/274/77 57/273/77 139/296/77
f 60/283/78 55/280/78 140/279/78
f 56/287/79 58/286/79 141/297/79 138/295/79
f 60/283/80 140/279/80 139/298/80
f 57/273/77 60/289/77 139/296/77
f 141/297/81 58/286/81 139/299/81
f 138/295/82 59/294/82 56/287/82
f 137/276/70 59/275/70 55/300/70
f 63/301/83 64/302/83 142/303/83 143/304/83
f 64/305/84 77/306/84 144/307/84 142/308/84
f 65/309/85 66/310/85 67/311/85 145/312/85
f 68/313/86 65/309/86 145/312/86 143/304/86
f 66/314/87 146/315/87 144/307/87 67/316/87
f 69/317/88 70/291/88 72/318/88 147/319/88
f 62/292/89 71/320/89 148/321/89 149/322/89
f 71/320/90 69/323/90 147/324/90 148/321/90
f 68/313/91 73/325/91 150/326/91 149/322/91
f 73/327/92 146/315/92 72/318/92 150/328/92
f 74/329/93 79/330/94 151/331/93 152/332/93
f 153/333/95 74/334/95 152/335/95 154/336/95
f 155/337/96 75/338/96 156/339/96 76/340/96
f 63/301/97 155/337/97 76/340/97 154/336/97
f 75/341/98 77/306/98 151/331/98 156/342/98
f 141/297/99 139/299/99 69/323/99 71/320/99
f 138/295/100 141/297/100 71/320/100 62/292/100
f 139/298/101 140/279/101 70/291/101 69/317/101
f 149/322/102 150/326/102 61/293/102 62/292/102
f 150/328/103 72/318/103 70/291/103 61/290/103
f 142/308/104 144/307/104 146/315/104 73/327/104
f 143/304/105 142/303/105 73/325/105 68/313/105
f 147/319/106 72/318/106 146/315/106 66/314/106
f 149/322/107 148/321/107 65/309/107 68/313/107
f 148/321/108 147/324/108 66/310/108 65/309/108
f 67/316/109 144/307/109 77/306/109 75/341/109
f 143/304/110 145/312/110 155/337/110 63/301/110
f 145/312/111 67/311/111 75/338/111 155/337/111
f 152/332/112 151/331/112 77/306/112 64/305/112
f 154/336/113 152/335/113 64/302/113 63/301/113
f 133/343/114 157/344/114 74/334/114 153/333/114
f 157/345/115 49/250/115 79/330/116 74/329/115
f 76/340/117 156/339/117 158/346/117 78/347/117
f 154/336/118 76/340/118 78/347/118 153/333/118
f 156/342/119 151/331/119 79/330/120 158/348/119
f 50/349/121 49/250/121 157/345/121
f 78/347/122 158/346/122 132/350/122 134/351/122
f 153/333/123 78/347/123 134/351/123 133/343/123
f 158/348/124 79/330/125 49/250/124 132/249/124
f 80/352/126 81/353/126 159/354/126 160/355/126
f 160/356/127 159/357/127 82/358/127 83/359/127
f 83/360/128 82/361/128 84/362/128 161/363/128
f 161/364/129 84/365/129 81/366/129 80/367/129
f 162/368/15 163/369/15 164/370/15 85/371/15
f 82/358/14 159/372/14 81/373/14 84/365/14
f 164/370/130 161/364/130 80/367/130 85/374/130
f 163/375/128 83/360/128 161/363/128 164/376/128
f 162/377/127 160/356/127 83/359/127 163/369/127
f 85/378/126 80/352/126 160/355/126 162/379/126
f 133/343/131 134/351/131 50/380/131
f 134/351/132 132/350/132 50/380/132
f 50/381/133 157/344/133 133/343/133
f 94/68/134 93/67/134 96/125/134 17/134/134
f 54/263/135 51/262/135 165/288/135 168/272/135
f 53/259/136 136/258/136 170/285/136 167/284/136
f 51/255/137 45/254/137 166/282/137 165/281/137
f 136/269/138 54/263/138 168/272/138 170/271/138
f 56/277/139 137/276/139 169/264/139 167/266/139
f 137/276/140 55/300/140 166/265/140 169/264/140
